HIERARCHY
ROOT SpineBase
{
  OFFSET 0.000000 0.000000 0.000000
  CHANNELS 6 Xposition Yposition Zposition Zrotation Xrotation Yrotation
  JOINT SpineMid
  {
    OFFSET 0.000000 30.758438 0.000000
    CHANNELS 3 Zrotation Xrotation Yrotation
    JOINT SpineShoulder
    {
      OFFSET -0.013202 22.806535 -0.716091
      CHANNELS 3 Zrotation Xrotation Yrotation
      JOINT Neck
      {
        OFFSET -0.013900 7.527453 -0.530033
        CHANNELS 3 Zrotation Xrotation Yrotation
        JOINT Head
        {
          OFFSET 0.032749 15.041394 0.775902
          CHANNELS 3 Zrotation Xrotation Yrotation
          End Site
          {
            OFFSET 0 0 0
          }
        }
      }
      JOINT ShoulderLeft
      {
        OFFSET -16.609158 -3.125247 -1.361231
        CHANNELS 3 Zrotation Xrotation Yrotation
        JOINT ElbowLeft
        {
          OFFSET -5.245389 -26.614666 -1.635315
          CHANNELS 3 Zrotation Xrotation Yrotation
          JOINT WristLeft
          {
            OFFSET 1.961285 -20.915156 -5.649774
            CHANNELS 3 Zrotation Xrotation Yrotation
            JOINT HandLeft
            {
              OFFSET 2.473686 -3.614521 1.196535
              CHANNELS 3 Zrotation Xrotation Yrotation
              JOINT HandTipLeft
              {
                OFFSET 2.198466 -5.199214 -0.021019
                CHANNELS 3 Zrotation Xrotation Yrotation
                End Site
                {
                  OFFSET 0 0 0
                }
              }
              JOINT ThumbLeft
              {
                OFFSET 2.283809 2.950550 -2.338713
                CHANNELS 3 Zrotation Xrotation Yrotation
                End Site
                {
                  OFFSET 0 0 0
                }
              }
            }
          }
        }
      }
      JOINT ShoulderRight
      {
        OFFSET 17.149137 -4.853924 -2.189620
        CHANNELS 3 Zrotation Xrotation Yrotation
        JOINT ElbowRight
        {
          OFFSET 6.925931 -27.634174 0.878744
          CHANNELS 3 Zrotation Xrotation Yrotation
          JOINT WristRight
          {
            OFFSET 1.904344 -21.165602 -4.146083
            CHANNELS 3 Zrotation Xrotation Yrotation
            JOINT HandRight
            {
              OFFSET -0.209167 -4.391792 -0.539146
              CHANNELS 3 Zrotation Xrotation Yrotation
              JOINT HandTipRight
              {
                OFFSET -0.428685 -7.100589 1.330320
                CHANNELS 3 Zrotation Xrotation Yrotation
                End Site
                {
                  OFFSET 0 0 0
                }
              }
              JOINT ThumbRight
              {
                OFFSET 2.285394 -1.329572 -3.542532
                CHANNELS 3 Zrotation Xrotation Yrotation
                End Site
                {
                  OFFSET 0 0 0
                }
              }
            }
          }
        }
      }
    }
  }
  JOINT HipLeft
  {
    OFFSET -7.989623 0.492319 -3.228633
    CHANNELS 3 Zrotation Xrotation Yrotation
    JOINT KneeLeft
    {
      OFFSET -2.776346 -34.118350 7.409784
      CHANNELS 3 Zrotation Xrotation Yrotation
      JOINT AnkleLeft
      {
        OFFSET -1.847260 -33.282524 4.558496
        CHANNELS 3 Zrotation Xrotation Yrotation
        JOINT FootLeft
        {
          OFFSET -0.403294 -3.798340 -11.623874
          CHANNELS 3 Zrotation Xrotation Yrotation
          End Site
          {
            OFFSET 0 0 0
          }
        }
      }
    }
  }
  JOINT HipRight
  {
    OFFSET 7.621147 0.362184 -3.559624
    CHANNELS 3 Zrotation Xrotation Yrotation
    JOINT KneeRight
    {
      OFFSET -0.126096 -31.969240 8.659522
      CHANNELS 3 Zrotation Xrotation Yrotation
      JOINT AnkleRight
      {
        OFFSET -2.097544 -35.170641 8.400738
        CHANNELS 3 Zrotation Xrotation Yrotation
        JOINT FootRight
        {
          OFFSET 8.954782 -5.079523 1.288455
          CHANNELS 3 Zrotation Xrotation Yrotation
          End Site
          {
            OFFSET 0 0 0
          }
        }
      }
    }
  }
}
MOTION
Frames: 12
Frame Time: 0.033333
21.994352 77.261786 383.819113 -0.000000 0.000000 1.214646 -0.000000 0.000000 -1.214646 -0.000000 0.000000 0.000000 -0.000000 0.000000 0.000000 0.000000 0.000000 0.000000 -0.000000 0.000000 0.000000 -0.000000 0.000000 0.000000 -0.000000 0.000000 0.000000 -0.000000 0.000000 0.000000 0.000000 0.000000 0.000000 0.000000 0.000000 0.000000 -0.000000 0.000000 0.000000 -0.000000 0.000000 0.000000 -0.000000 0.000000 0.000000 -0.000000 0.000000 0.000000 0.000000 0.000000 0.000000 0.000000 0.000000 0.000000 -0.000000 0.000000 -1.214646 -0.000000 0.000000 0.000000 -0.000000 0.000000 0.000000 0.000000 0.000000 0.000000 -0.000000 0.000000 -1.214646 -0.000000 0.000000 0.000000 -0.000000 0.000000 0.000000 0.000000 0.000000 0.000000
21.997691 77.253278 383.833329 -0.113044 0.002821 1.270444 0.112954 -0.005327 -1.270436 -0.000000 0.000000 0.000000 -0.000000 0.000000 0.000000 0.000000 0.000000 0.000000 -0.000000 0.000000 0.000000 -0.000000 0.000000 0.000000 -0.704957 -2.155363 -1.718285 -5.488868 4.612517 3.221276 0.000000 0.000000 0.000000 0.000000 0.000000 0.000000 -0.000000 0.000000 0.000000 -0.000000 0.000000 0.000000 -3.446779 1.059247 0.403645 2.964166 0.853658 -0.548804 0.000000 0.000000 0.000000 0.000000 0.000000 0.000000 0.112954 -0.005327 -1.270436 -0.000000 0.000000 0.000000 -0.257722 -1.293676 0.955926 0.000000 0.000000 0.000000 0.112954 -0.005327 -1.270436 -0.000000 0.000000 0.000000 -2.507997 0.863257 0.942663 0.000000 0.000000 0.000000
22.000552 77.245183 383.851732 -0.214771 0.006490 1.333967 0.214561 -0.011488 -1.333933 -0.000000 0.000000 0.000000 -0.000000 0.000000 0.000000 0.000000 0.000000 0.000000 -0.000000 0.000000 0.000000 -1.001847 0.035586 0.274484 -0.668815 -3.627783 -3.333707 -11.026252 8.030196 6.561115 0.000000 0.000000 0.000000 0.000000 0.000000 0.000000 -0.000000 0.000000 0.000000 -0.000000 0.000000 0.000000 -6.467009 2.065337 0.809085 5.614535 1.476047 -0.958580 0.000000 0.000000 0.000000 0.000000 0.000000 0.000000 0.214561 -0.011488 -1.333933 -0.000000 0.000000 0.000000 -0.432588 -2.202526 1.645434 0.000000 0.000000 0.000000 0.214561 -0.011488 -1.333933 -0.000000 0.000000 0.000000 -4.987602 1.881138 2.320092 0.000000 0.000000 0.000000
22.002934 77.237500 383.874323 -0.305210 0.011007 1.405257 0.304848 -0.018489 -1.405179 -0.000000 0.000000 0.000000 -0.000000 0.000000 0.000000 0.000000 0.000000 0.000000 -0.000000 0.000000 0.000000 -1.472837 0.032802 0.401826 -1.362085 -4.297932 -4.379602 -15.873119 10.144749 9.494842 0.000000 0.000000 0.000000 0.000000 0.000000 0.000000 -0.000000 0.000000 0.000000 -0.000000 0.000000 0.000000 -9.053798 3.023804 1.200734 7.936909 1.859324 -1.242374 0.000000 0.000000 0.000000 0.000000 0.000000 0.000000 0.304848 -0.018489 -1.405179 -0.000000 0.000000 0.000000 -0.534523 -2.704299 2.057770 0.000000 0.000000 0.000000 0.304848 -0.018489 -1.405179 -0.000000 0.000000 0.000000 -7.429208 3.037529 4.170007 0.000000 0.000000 0.000000
22.004838 77.230229 383.901101 -0.384390 0.016372 1.484366 0.383837 -0.026323 -1.484223 -0.000000 0.000000 0.000000 -0.000000 0.000000 0.000000 0.000000 0.000000 0.000000 -0.000000 0.000000 0.000000 -1.923808 0.016497 0.522346 -2.244638 -4.163488 -4.949164 -19.368392 11.061451 11.501569 0.000000 0.000000 0.000000 0.000000 0.000000 0.000000 -0.000000 0.000000 0.000000 -0.448168 0.965362 0.178194 -10.739928 3.028233 1.209746 9.926890 1.997486 -1.413095 0.000000 0.000000 0.000000 0.000000 0.000000 0.000000 0.383837 -0.026323 -1.484223 -0.000000 0.000000 0.000000 -0.569679 -2.787196 2.186922 0.000000 0.000000 0.000000 0.383837 -0.026323 -1.484223 -0.000000 0.000000 0.000000 -9.822706 4.311765 6.522244 0.000000 0.000000 0.000000
22.006263 77.223371 383.932066 -0.452336 0.022583 1.571349 0.451547 -0.034978 -1.571122 -0.000000 0.000000 0.000000 -0.337925 0.881049 0.018104 0.000000 0.000000 0.000000 -0.000000 0.000000 0.000000 -2.354734 -0.013187 0.635901 -3.296771 -3.214128 -4.993014 -21.148659 10.983539 12.249255 0.000000 0.000000 0.000000 0.000000 0.000000 0.000000 -0.000000 0.000000 0.000000 -0.593589 1.222228 0.232204 -12.307350 3.690298 1.403410 11.585109 1.886393 -1.482409 0.000000 0.000000 0.000000 0.000000 0.000000 0.000000 0.451547 -0.034978 -1.571122 -0.000000 0.000000 0.000000 -0.539586 -2.449163 2.031509 0.000000 0.000000 0.000000 0.451547 -0.034978 -1.571122 -0.000000 0.000000 0.000000 -12.155626 5.678552 9.393807 0.000000 0.000000 0.000000
21.986257 77.222319 383.993032 -0.500868 0.025040 1.721996 0.499889 -0.040078 -1.721711 -0.000000 0.000000 0.000000 -0.540641 1.069562 0.030591 0.000000 0.000000 0.000000 -0.000000 0.000000 0.000000 -2.716058 -0.161080 0.716754 -5.284498 -1.343451 -4.701703 -22.247832 9.729669 12.031809 0.000000 0.000000 0.000000 0.000000 0.000000 0.000000 -0.000000 0.000000 0.000000 -0.705031 1.473943 0.279251 -13.375726 1.930949 1.359207 12.867917 5.246685 -1.893241 0.000000 0.000000 0.000000 0.000000 0.000000 0.000000 0.499889 -0.040078 -1.721711 -0.299163 1.070655 -0.097716 0.000593 -1.800570 1.115932 0.000000 0.000000 0.000000 0.499889 -0.040078 -1.721711 -0.000000 0.000000 0.000000 -14.733926 6.907340 12.278842 0.000000 0.000000 0.000000
21.987131 77.215746 384.046089 -0.536311 0.031556 1.876904 0.534989 -0.049103 -1.876527 -0.000000 0.000000 0.000000 -0.696932 1.177551 0.040527 0.000000 0.000000 0.000000 -0.000000 0.000000 0.000000 -3.166929 -0.233825 0.829898 -7.457151 1.617613 -3.516624 -19.283293 7.386394 9.662104 0.000000 0.000000 0.000000 0.000000 0.000000 0.000000 -0.000000 0.000000 0.000000 -0.886556 1.741276 0.343039 -13.818083 3.252491 1.442425 13.900721 2.182280 -1.521563 0.000000 0.000000 0.000000 0.000000 0.000000 0.000000 0.534989 -0.049103 -1.876527 -0.000000 0.000000 0.000000 0.819443 3.864328 -2.671534 0.000000 0.000000 0.000000 0.534989 -0.049103 -1.876527 -0.000000 0.000000 0.000000 -17.793635 8.847510 17.558521 0.000000 0.000000 0.000000
22.007595 77.203643 384.083660 -0.559034 0.056693 2.056149 0.556640 -0.076711 -2.055500 -0.000000 0.000000 0.000000 -0.770706 1.378005 0.045996 0.000000 0.000000 0.000000 -0.000000 0.000000 0.000000 -3.649453 -0.313598 0.950275 -7.598188 5.442626 -0.728451 -15.913824 5.970835 6.553560 0.000000 0.000000 0.000000 0.000000 0.000000 0.000000 0.061904 0.854302 0.215646 -1.149645 1.223305 0.186398 -14.192531 5.106753 1.556029 14.524802 -0.104804 -1.169097 0.000000 0.000000 0.000000 0.000000 0.000000 0.000000 0.556640 -0.076711 -2.055500 -0.000000 0.000000 0.000000 0.484981 3.840200 -1.731333 0.000000 0.000000 0.000000 0.556640 -0.076711 -2.055500 -0.000000 0.000000 0.000000 -22.972781 10.562610 23.782279 0.000000 0.000000 0.000000
22.024371 77.197601 384.120651 -0.618160 0.108419 2.242863 0.613445 -0.132521 -2.241569 -0.770610 0.347396 -0.051296 0.014909 0.900135 0.095816 0.000000 0.000000 0.000000 0.770934 -0.346674 0.055964 -4.442965 -0.469451 1.143928 -6.935593 10.194128 3.010346 -15.542742 1.915600 1.034125 0.000000 0.000000 0.000000 0.000000 0.000000 0.000000 0.658480 0.715024 0.319052 -1.231155 1.313054 0.217185 -14.077186 6.658040 1.589565 14.783821 -1.065651 -0.874251 0.000000 0.000000 0.000000 0.000000 0.000000 0.000000 0.098666 2.131145 -2.547154 1.474124 -4.759445 0.633890 -1.057857 4.073086 0.302968 0.000000 0.000000 0.000000 1.388771 0.149144 -2.035883 -0.764838 -0.309017 -0.207861 -27.076282 11.169257 27.516895 0.000000 0.000000 0.000000
22.043616 77.175431 384.132022 -0.710050 0.150637 2.258446 -0.115747 0.185495 -2.282333 -0.047954 0.022188 -0.035395 0.158261 0.637315 0.100972 0.000000 0.000000 0.000000 0.881342 -0.352690 0.064106 -4.886601 0.117831 1.341822 -7.020904 12.867661 5.498550 -14.301149 -1.958298 -3.251540 0.000000 0.000000 0.000000 0.000000 0.000000 0.000000 0.551454 0.853681 0.357865 -1.027540 1.755625 0.248974 -15.457152 8.568730 1.840945 16.797303 -4.476895 -0.199437 0.000000 0.000000 0.000000 0.000000 0.000000 0.000000 -0.253773 4.741149 -2.870521 2.657643 -9.600684 1.336509 -2.327752 3.313553 2.941677 0.000000 0.000000 0.000000 1.578269 0.297492 -2.027376 -0.857346 -0.506593 -0.233739 -25.291044 11.279551 27.042995 0.000000 0.000000 0.000000
22.057123 77.163462 384.167914 -0.871861 0.333944 1.986312 -0.159344 0.200625 -2.014786 -0.043650 -0.050786 -0.043699 0.257474 -0.183131 0.116947 0.000000 0.000000 0.000000 0.834451 0.470260 -0.091600 -5.130807 0.031376 1.680342 -5.575090 15.138956 8.176283 -13.880373 -5.156951 -7.446894 0.000000 0.000000 0.000000 0.000000 0.000000 0.000000 0.413397 1.051647 0.445965 -0.797027 1.966024 0.251976 -17.032429 8.890243 1.999493 19.214758 -3.039416 0.051159 0.000000 0.000000 0.000000 0.000000 0.000000 0.000000 -0.612053 7.935228 -2.951564 4.113941 -15.602196 2.338200 -4.129336 3.543466 7.621697 0.000000 0.000000 0.000000 1.836067 0.352722 -1.725853 -0.954321 -0.745672 -0.261303 -26.351617 10.406339 24.494846 0.000000 0.000000 0.000000
